<svg viewBox="0 0 210.322 68" xmlns="http://www.w3.org/2000/svg">
   <path d="M20.075 34.648 8.84 46.136v16.12H0V0h8.84v34.834L42.36 0h10.13L26.151 27.978 54.33 62.256H44.017Zm98.714 22.605 3.5-6.67c4.051 2.78 10.313 4.818 16.391 4.818 7.919 0 11.05-2.41 11.05-6.486 0-10.56-29.652-1.482-29.652-20.196 0-8.523 7.551-14.081 19.522-14.081 6.078 0 13.076 1.667 17.128 4.261l-3.683 6.67c-4.236-2.779-8.84-3.705-13.445-3.705-7.366 0-11.05 2.78-11.05 6.485 0 11.117 29.652 2.038 29.652 20.381 0 8.523-7.736 13.897-20.259 13.897-7.551.185-15.286-2.224-19.154-5.374zm91.533-23.531v28.534h-8.104v-6.3c-2.762 4.262-8.103 6.67-15.47 6.67-10.682 0-17.312-5.743-17.312-13.896 0-7.597 4.788-13.71 18.785-13.71h13.445v-1.67c0-7.226-4.236-11.302-12.524-11.302-5.525 0-11.234 2.038-14.918 5.003l-3.499-6.485c4.789-3.891 11.787-6.115 19.338-6.115 13.076.186 20.259 6.485 20.259 19.27zm-8.472 14.082v-6.67h-13.076c-8.472 0-10.866 3.335-10.866 7.226 0 4.632 3.867 7.596 10.313 7.596 6.446.186 11.603-2.594 13.629-8.152zM91.532 49.842v12.6l5.341-3.15v-12.6Z"/>
   <path d="M106.266 34.463 84.35 21.678l-12.155-7.04-11.972 20.937.185 19.64L82.14 68l2.21-1.297V48.174l9.76-17.231 9.946 5.744v18.528l2.21-1.297z"/>
</svg>
